<?xml version="1.0" encoding="UTF-8"?>
<svg version="1.1" xmlns="http://www.w3.org/2000/svg" width="1536" height="1024">
<path d="M0 0 C506.88 0 1013.76 0 1536 0 C1536 337.92 1536 675.84 1536 1024 C1029.12 1024 522.24 1024 0 1024 C0 686.08 0 348.16 0 0 Z " fill="#000000" transform="translate(0,0)"/>
<path d="M0 0 C0 173.25 0 346.5 0 525 C-506.88 525 -1013.76 525 -1536 525 C-1536 385.74 -1536 246.48 -1536 103 C-1528.9588682 108.86760983 -1523.17207573 115.04750336 -1518.65625 123.02734375 C-1513.96724049 131.30879383 -1510.51735056 136.3176532 -1501.52734375 140.34765625 C-1497.34848686 142.30519386 -1493.67687419 144.71463711 -1489.875 147.3125 C-1489.2353833 147.7461084 -1488.5957666 148.1797168 -1487.93676758 148.62646484 C-1486.28840172 149.74690244 -1484.64396807 150.87311963 -1483 152 C-1479.17949354 154.54700431 -1477.58776505 154.03847599 -1473.0625 153.625 C-1438.29882052 150.99175117 -1404.46715473 158.2440401 -1377 181 C-1374.41711884 183.23384316 -1371.87818435 185.50175512 -1369.37109375 187.8203125 C-1366.45507748 190.50093372 -1363.43698684 193.04971258 -1360.3984375 195.58984375 C-1359 197 -1359 197 -1359 199 C-1358.01 199.33 -1357.02 199.66 -1356 200 C-1354.53346849 201.75578822 -1353.14889413 203.58074001 -1351.8125 205.4375 C-1351.41087646 205.97592529 -1351.00925293 206.51435059 -1350.59545898 207.0690918 C-1348.71497137 209.5906463 -1346.93490189 212.10409833 -1345.265625 214.7734375 C-1340.17542446 222.36203922 -1334.07269821 224.33498242 -1325.80078125 227.23828125 C-1313.4587743 231.61464981 -1302.78278302 238.3838936 -1292.7578125 246.71484375 C-1290.03395484 249.05229812 -1290.03395484 249.05229812 -1287 251 C-1285.39381517 250.80375962 -1283.78815801 250.59273017 -1282.19482422 250.31054688 C-1253.66635702 246.2740385 -1225.45764288 254.49805917 -1202.1875 270.9375 C-1197.65959241 274.36202446 -1193.43353765 278.06607065 -1189.26953125 281.921875 C-1187.37396121 283.65757769 -1185.44262905 285.27089676 -1183.4375 286.875 C-1179.41109561 290.2701866 -1176.27232318 294.39529779 -1173.015625 298.51171875 C-1171.4227005 300.47817787 -1169.83420006 302.26447526 -1168 304 C-1167.1028125 303.5359375 -1167.1028125 303.5359375 -1166.1875 303.0625 C-1164 302 -1164 302 -1161 301 C-1161 300.34 -1161 299.68 -1161 299 C-1158.88886337 297.34673725 -1156.79553297 295.8491009 -1154.5625 294.375 C-1153.89234863 293.9320459 -1153.22219727 293.4890918 -1152.53173828 293.03271484 C-1141.27609852 285.78636049 -1129.0247971 280.18910183 -1116 277 C-1115.31607178 276.82484863 -1114.63214355 276.64969727 -1113.92749023 276.46923828 C-1106.30558631 274.7051928 -1098.73093082 274.6018084 -1090.9375 274.625 C-1089.90712112 274.62581573 -1089.90712112 274.62581573 -1088.85592651 274.62664795 C-1078.08204571 274.66585706 -1068.24560105 275.51627926 -1058 279 C-1057.0112085 279.32145996 -1057.0112085 279.32145996 -1056.00244141 279.64941406 C-1035.71872693 286.30251115 -1019.38093751 297.35354546 -1004 312 C-1002.90171875 313.00160156 -1002.90171875 313.00160156 -1001.78125 314.0234375 C-987.46597837 327.48660963 -978.22622566 346.9948869 -971 365 C-970.57412598 366.05960938 -970.57412598 366.05960938 -970.13964844 367.140625 C-968.93775996 370.2219578 -968 372.66326466 -968 376 C-967.27039063 375.3709375 -966.54078125 374.741875 -965.7890625 374.09375 C-954.34398694 364.58108116 -940.696225 357.82709575 -926 355 C-925.01 354.80277344 -924.02 354.60554688 -923 354.40234375 C-919.62504489 353.93242481 -916.38040572 354.05635172 -912.98046875 354.21875 C-900.75370576 355.44953649 -900.75370576 355.44953649 -889.35546875 352.2109375 C-886.9511096 349.94667487 -884.98903613 347.63038112 -883 345 C-865.79501148 329.93227713 -842.01144204 319.43417815 -819 319 C-817.69675781 318.94972656 -816.39351562 318.89945313 -815.05078125 318.84765625 C-782.58401544 317.92174113 -754.57836034 331.81487315 -730 352 C-728.16915015 353.48223951 -726.33585394 354.96146293 -724.5 356.4375 C-723.6853125 357.09621094 -722.870625 357.75492188 -722.03125 358.43359375 C-720.08725964 360.03639284 -720.08725964 360.03639284 -718 361 C-717.41734375 360.00742187 -716.8346875 359.01484375 -716.234375 357.9921875 C-710.67040663 348.70317971 -704.5560624 340.47874472 -697.29980469 332.45117188 C-695.63225944 330.58943465 -694.04044476 328.66739803 -692.4375 326.75 C-677.18528045 309.56388658 -656.82322999 296.98072264 -635 290 C-634.14921875 289.71382812 -633.2984375 289.42765625 -632.421875 289.1328125 C-624.7922261 286.67541025 -617.76821876 285.84404991 -609.75 286.21875 C-608.6465625 286.26257813 -607.543125 286.30640625 -606.40625 286.3515625 C-604.13384337 286.45058939 -601.86258567 286.5808712 -599.59375 286.7421875 C-594.78216557 286.88833376 -591.38316044 286.98832117 -587.37695312 284.12573242 C-585.11180915 281.84290674 -583.05139629 279.47470869 -581 277 C-574.72748315 271.42901464 -568.12354816 266.42559305 -561 262 C-560.12085938 261.43539063 -559.24171875 260.87078125 -558.3359375 260.2890625 C-550.26279442 255.30590949 -542.00502631 251.86303962 -533 249 C-532.34918457 248.78682129 -531.69836914 248.57364258 -531.02783203 248.35400391 C-521.70019703 245.42591136 -513.14136043 244.93501378 -503.38916016 245.29296875 C-488.70940107 246.39097137 -488.70940107 246.39097137 -476.0625 240.125 C-474.52946873 238.62471119 -473.04558103 237.09263385 -471.57958984 235.52685547 C-468.69539407 232.73894814 -465.2944972 230.75322212 -461.875 228.6875 C-461.19574463 228.27298584 -460.51648926 227.85847168 -459.81665039 227.43139648 C-444.3818851 218.12858382 -427.1126318 210.69842049 -408.765625 211.0625 C-407.82807373 211.07966064 -406.89052246 211.09682129 -405.92456055 211.11450195 C-404.04757062 211.16237536 -402.17101913 211.2355712 -400.29614258 211.33666992 C-394.87464101 211.53703559 -394.87464101 211.53703559 -390.265625 208.8984375 C-389.51796875 207.94195313 -388.7703125 206.98546875 -388 206 C-387.0163034 204.94533059 -386.01930748 203.90296173 -385.01171875 202.87109375 C-384.47901367 202.31711914 -383.94630859 201.76314453 -383.39746094 201.19238281 C-367.72868922 185.11198145 -348.60193363 171.72649496 -327 165 C-326.29746094 164.77973145 -325.59492187 164.55946289 -324.87109375 164.33251953 C-302.88183631 157.6306329 -279.36828021 156.88548206 -257.23046875 163.3828125 C-250.1548876 165.34067909 -245.06867106 163.07589147 -238.57421875 160.2890625 C-230.19831933 157.26824632 -221.91927703 156.58597629 -213.0625 156.5625 C-211.9794458 156.55718262 -210.8963916 156.55186523 -209.78051758 156.54638672 C-201.71694118 156.65194799 -194.4916617 157.88266859 -186.83813477 160.39672852 C-182.90894617 161.75645964 -182.90894617 161.75645964 -178.859375 161.46875 C-176.18284294 159.35451459 -173.61076639 157.13991295 -171.0625 154.875 C-164.15765807 148.89903421 -156.66258562 142.94290246 -147.9375 139.94921875 C-137.60435919 136.24920088 -134.67447932 127.94353855 -130.01171875 118.7109375 C-116.69840125 92.63956631 -93.3765733 72.00458871 -66 62 C-61.04119202 60.47338008 -56.21167408 59 -51 59 C-50.7306665 58.27184082 -50.46133301 57.54368164 -50.18383789 56.79345703 C-49.02451391 54.05784453 -47.69630764 51.77842648 -46.05859375 49.3046875 C-45.18992676 47.99153564 -45.18992676 47.99153564 -44.30371094 46.65185547 C-43.68786133 45.73549316 -43.07201172 44.81913086 -42.4375 43.875 C-41.80489258 42.93156738 -41.17228516 41.98813477 -40.52050781 41.01611328 C-36.00447132 34.34569018 -31.34111558 28.03820971 -26 22 C-25.236875 21.09378906 -24.47375 20.18757812 -23.6875 19.25390625 C-7.0239251 0 -7.0239251 0 0 0 Z " fill="#FAFAFA" transform="translate(1536,499)"/>
<path d="M0 0 C0.69383789 -0.00563965 1.38767578 -0.0112793 2.10253906 -0.01708984 C6.9403447 0.05182144 10.14208601 0.92452457 15 2.3125 C15 86.4625 15 170.6125 15 257.3125 C-119.97 257.3125 -254.94 257.3125 -394 257.3125 C-392.6702794 250.66389698 -391.35901805 244.80162549 -389 238.5625 C-388.69803711 237.7588501 -388.39607422 236.9552002 -388.08496094 236.12719727 C-377.89399225 209.54039834 -364.63206255 186.06914879 -345 165.3125 C-344.11957031 164.35601563 -343.23914062 163.39953125 -342.33203125 162.4140625 C-321.41628072 140.18703596 -291.38061715 126.79104684 -261 125.3125 C-259.98035156 125.25835938 -258.96070313 125.20421875 -257.91015625 125.1484375 C-238.97050587 124.62299953 -220.97314101 129.78474379 -204.36474609 138.63354492 C-199.21402781 141.3581811 -196.20147082 142.91290113 -190.4765625 141.3515625 C-189.18835398 140.89224225 -187.90450812 140.42052716 -186.625 139.9375 C-173.57181587 135.10888311 -159.81678803 134.51430321 -146.90966797 140.23974609 C-142.20352838 142.46636226 -137.59146579 144.85944531 -133 147.3125 C-132.75378906 146.44367188 -132.50757813 145.57484375 -132.25390625 144.6796875 C-127.74052206 132.55963402 -116.32078272 122.223536 -105 116.3125 C-103.20949219 115.77302734 -103.20949219 115.77302734 -101.3828125 115.22265625 C-97.99697071 113.73974499 -97.99697071 113.73974499 -97.17529297 111.5690918 C-96.63786243 109.23780527 -96.29812509 106.93634095 -96 104.5625 C-95.70101861 102.74448683 -95.39200741 100.92810139 -95.07421875 99.11328125 C-94.90841309 98.16275879 -94.74260742 97.21223633 -94.57177734 96.23291016 C-90.67014639 76.30493857 -82.61273058 56.96417103 -71 40.3125 C-70.27103516 39.21615234 -70.27103516 39.21615234 -69.52734375 38.09765625 C-68.41397041 36.45843311 -67.21657142 34.87666325 -66 33.3125 C-65.34 33.3125 -64.68 33.3125 -64 33.3125 C-63.76796875 32.75949219 -63.5359375 32.20648437 -63.296875 31.63671875 C-55.29778 17.30099126 -35.54850655 6.6665217 -20.44921875 2.28125 C-13.60035608 0.71910181 -7.00641263 0.05356585 0 0 Z " fill="#000000" transform="translate(1521,766.6875)"/>
<path d="M0 0 C24.82673272 0 46.3226696 4.63308451 67 19 C68.32064453 19.89138672 68.32064453 19.89138672 69.66796875 20.80078125 C79.2671595 27.49112632 94.68326399 38.36652797 100 49 C100.83660156 48.97679687 101.67320313 48.95359375 102.53515625 48.9296875 C121.70270052 48.63251627 140.02812925 51.81083362 156 63 C156.96873047 63.65548828 156.96873047 63.65548828 157.95703125 64.32421875 C173.02704819 75.03590085 184.96651172 88.9298561 194 105 C194.5878125 106.03423096 194.5878125 106.03423096 195.1875 107.08935547 C196.47896864 109.38221679 197.74554851 111.68668227 199 114 C199.42901611 114.79035645 199.85803223 115.58071289 200.30004883 116.39501953 C202.58274917 120.76218915 204.42099012 125.03725266 205.88671875 129.74609375 C208.21554292 138.9721789 208.21554292 138.9721789 213.7265625 146.27148438 C218.00892445 148.200281 222.34770864 148.55717272 227 149 C229.95703125 150.05078125 229.95703125 150.05078125 232 151 C232.59425781 150.50371094 233.18851563 150.00742187 233.80078125 149.49609375 C243.10811732 141.86784164 252.72479946 135.34764089 264 131 C264.83015625 130.67902344 265.6603125 130.35804688 266.515625 130.02734375 C280.09118791 125.7601712 298.68906108 125.96071543 312 131 C313.00933594 131.37511719 314.01867187 131.75023437 315.05859375 132.13671875 C321.3190563 134.61433002 327.21272415 137.56563176 333 141 C333 141.66 333 142.32 333 143 C333.72316406 143.24234375 334.44632812 143.4846875 335.19140625 143.734375 C338.36827591 145.16595465 340.38882931 146.88251443 342.9375 149.25 C343.79988281 150.05050781 344.66226562 150.85101562 345.55078125 151.67578125 C346.35902344 152.44277344 347.16726563 153.20976563 348 154 C348.98033203 154.91845703 348.98033203 154.91845703 349.98046875 155.85546875 C351.36740517 157.189695 352.69178371 158.58850347 354 160 C354 160.66 354 161.32 354 162 C237.18 162 120.36 162 0 162 C0 108.54 0 55.08 0 0 Z " fill="#000000" transform="translate(0,862)"/>
</svg>
